<svg width="821" height="471" viewBox="0 0 821 471" fill="none" xmlns="http://www.w3.org/2000/svg">
<g clip-path="url(#clip0_142_2086)">
<path d="M399.3 407.87L404.75 415.19C412.61 425.29 418.8 436.65 419.54 449.61C419.89 455.7 417.74 462.19 412.7 465.55C406.67 469.57 399.4 470.2 392.23 470.13C381.27 470.02 371 467.52 360.79 463.54C342.9 456.57 327.36 445.63 313.76 432.2C308.01 426.52 302.79 420.94 298.25 414.24C320.04 415.4 341.81 414.95 363.82 412.8L399.29 407.89L399.3 407.87Z" fill="#6A85A0"/>
<path d="M605.77 333.15C608.54 334.98 611.38 337.3 612.67 340.74C616.26 350.26 613.58 359.09 608.97 367.92C604.87 375.77 602.11 383.7 600.53 392.44C598.32 404.7 591.56 412.17 578.71 411.59C561.72 410.82 538.32 401.59 523.04 393.41L501.63 380.46L544.92 362.82C565.17 353.55 584.92 344.2 604.15 333.08C604.84 332.68 605.34 332.88 605.76 333.16L605.77 333.15Z" fill="#6985A0"/>
<path d="M523.78 105.07C495.51 93.3002 466.32 83.6502 436.34 76.1002C407.95 68.9502 379.21 64.3302 350.34 62.3802L367.4 45.7402C390.68 24.8702 421.14 6.19024 452.13 0.560242C466.07 -1.97976 477.45 4.32024 482.73 17.1602L488.57 31.3502C493.89 44.2902 501.69 55.4302 511.81 65.0802C516.48 69.5402 520.18 74.6002 523.03 80.3502C526.32 86.9902 526.35 94.3602 524.51 101.43C524.15 102.8 523.61 103.94 523.79 105.07H523.78Z" fill="#67839F"/>
<path d="M628.2 157.56C607.8 145.52 586.99 134.06 565.66 123.75C566.37 123.72 566.99 123.56 567.76 123.15C581.54 115.9 598.64 109.16 614.21 109.5C625.35 109.74 634.44 117.1 637.2 127.71C638.89 134.19 638.13 140.41 634.73 146.18L628.2 157.56Z" fill="#6985A0"/>
<path d="M802.66 294.14C803.07 294.41 803.46 294.69 803.81 295.02C804.16 295.35 804.45 295.66 804.65 296.05C810.32 306.83 815.3 325.47 815.61 337.66C815.62 338.06 815.49 338.47 815.34 338.89C815.19 339.31 814.96 339.73 814.72 340.13C814.77 341.64 815.14 342.78 815.81 343.55C816.49 350.62 816.15 357.57 814.79 364.4C815.99 365.43 815.99 366.67 814.8 368.13L811.71 371.15C805.48 377.23 789.18 374.56 779.74 371.68C771.01 369.02 762.9 365.78 754.84 361.53C732.73 349.87 712.77 335.47 695.06 317.94L688.44 311.39L672.68 293.26C672.38 292.92 671.78 292.72 671.59 292.58C671.82 291.5 672.82 290.91 673.79 290.19L689.91 278.28C700 269.86 706.59 258.28 708.47 245.15C707.89 244.62 707.11 244.4 706.6 244.3C707.21 244.34 707.91 244.44 708.49 244.14C710.59 226.91 704.15 210.59 691.02 199.27L670.72 184.53C671.84 184.8 672.06 183.92 672.74 183.12C681.13 173.27 689.7 163.97 699.24 155.15C716.95 138.76 735.95 124.61 757.22 113.23C767.6 107.67 779.51 102.71 791.14 103.72C803.61 104.8 807.14 116.28 806.72 128.16C805.93 150.43 795.82 179.49 785.64 199.51L770.64 229C767.79 231.94 764.92 234.78 763 238.3C762.39 239.42 764.13 240.52 764.76 241.13C772.86 248.94 780.01 257.17 786.42 266.45C792.62 275.44 798.09 284.47 802.65 294.14H802.66Z" fill="#6986A0"/>
<path d="M819.66 356.701L818.68 356.111C819.74 351.501 819 347.641 816.48 344.531C815.3 343.861 814.71 342.391 814.71 340.121C814.51 332.491 813.11 324.851 811.19 317.151C809.16 309.051 806.1 301.451 802.66 294.141C804.15 294.641 806.06 294.901 807.06 296.361C811.54 302.911 814.06 310.141 816.07 317.861C818.97 329.001 820.87 340.051 820.68 351.601L820.24 355.661C820.18 356.231 820.07 356.591 819.67 356.701H819.66Z" fill="#CCD5E0"/>
<path d="M819.66 356.701C819.49 360.711 817.63 365.351 814.8 368.121L815.12 366.441L813.7 364.631C814.49 361.791 815.21 358.701 815.13 355.681L814.72 340.121C815.75 340.681 814.92 342.761 815.55 342.991L816.95 343.521C818.21 345.041 820.06 347.521 819.97 349.651L819.67 356.701H819.66Z" fill="#9AADC2"/>
<path d="M706.61 244.3C707.83 244.3 708.74 244.49 709.33 244.89C708.02 258.23 700.75 270.51 690.55 279.06L672.73 292.4L671.6 292.58C671.17 292.57 670.61 292.62 670.1 292.97L655.33 303.22L637.59 314.03L606.8 331.69C606.06 332.12 605.71 332.47 605.78 333.16C573.21 352.67 537.84 367.06 503.68 380.72L501.65 380.47L476.92 388.9C451.33 397.03 425.63 403.63 399.33 407.89C399.34 408.29 399.28 408.9 399.01 408.94C368.85 413.98 335.57 417.22 303.93 415.51C302.98 415.46 302.04 415.26 301.1 415.05C300.16 414.84 299.22 414.55 298.29 414.24C257.43 412.07 217.13 402.92 178.82 387.65C127.44 367.18 77.8697 335.97 36.5497 299.45L22.5397 285.88C10.0697 273.8 1.47971 261.31 0.199707 243.7L3.86971 241.95C25.7497 235.26 47.8897 229.52 70.2997 224.74L78.5197 223.99L79.7897 225.34C92.3397 275.38 164.13 262.94 158.93 211.45L159.66 209.69L159.87 208.65L212.31 201.93L213.04 202.85C213.43 203.28 213.8 203.72 214.11 204.2C216.69 208.21 218.08 221.81 218.57 227.27C221.96 265.3 208.72 298.35 186.39 326.5C180.19 337.8 194.42 346.11 201.44 337.48C232.23 299.61 245.58 254.11 234.64 205.9L234.84 202.45L234.64 200.52C357.85 189.42 482.58 202.44 604.18 223.48L706.23 243.24L706.64 244.34L706.61 244.3Z" fill="#B2CBDD"/>
<path d="M333.72 317.63C310.64 334.15 286.95 327.78 262.79 316.6C255.98 313.45 246.97 310.15 250.76 305.1C258.87 294.31 261.34 282.55 256.09 269.84C255.17 267.6 256.17 264.72 258.63 263.98L286.68 255.58C303.35 251.34 320 248.76 337.2 247.95L359.04 248.35C363.73 248.44 368.18 250.2 371.85 252.96C376.7 256.61 378.71 262.27 377.31 268.11C376.13 273.03 374.07 277.4 370.78 281.15L360.5 292.88C352.33 302.19 343.83 310.39 333.74 317.62L333.72 317.63Z" fill="#6A86A1"/>
<path d="M517.92 350.52L489.57 361.31C483.8 363.51 477.87 359.35 476.14 353.93C474.54 348.92 476.48 341.77 482.39 339.65C524.65 324.47 564.62 303.93 601.04 277.5C606.68 275.4 612.14 277.46 615.14 282.2C617.93 286.59 617.65 293.43 612.98 296.95C584.63 318.36 550.9 336.33 517.91 350.52H517.92Z" fill="#D5EDFA"/>
<path d="M409.04 383.25C404.9 384.15 401.22 382.34 398.83 379.74C396.22 376.89 395.27 373.01 396.23 369.17C397.48 364.16 401.66 361.09 406.63 360.01L438.61 353.01C444.62 351.69 450.49 354.91 452.13 360.73C454.13 367.83 449.92 374.42 442.94 375.93L409.04 383.27V383.25Z" fill="#D8EEFB"/>
<path d="M234.81 202.41C243.06 235.18 239.87 269.96 225.91 300.79C219.8 314.29 211.89 326.54 202.47 337.75C198.6 342.36 192.64 343.33 187.99 340.03C183.73 337 182.3 330.5 185.54 325.9L198.75 307.15C218.05 275.85 223.06 238.17 213.03 202.82C207.77 184.28 198.63 167.49 186.12 152.85C182.36 148.45 183.37 141.94 187.22 138.33C191.07 134.72 197.86 134.47 201.68 138.8C217.76 157.03 228.89 178.85 234.82 202.42L234.81 202.41Z" fill="#3A5471"/>
<path d="M342.72 62.1301L347.79 62.5701L350.34 62.3801C351.35 62.1901 352.36 62.0201 353.38 61.9301C354.4 61.8401 355.4 61.7501 356.39 61.8301C410.62 65.8601 467.47 80.9401 517.85 101.56C518.9 101.99 519.89 102.56 520.88 103.15C521.87 103.74 522.83 104.39 523.77 105.07L565.66 123.75L569.15 124.71C587.51 133.01 605.13 143 622.57 153.11C623.59 153.7 624.53 154.44 625.47 155.19C626.41 155.94 627.31 156.74 628.2 157.57L670.73 184.55L672.21 184.39L691.66 198.52C704.67 209.6 711.49 226.39 709.57 243.41C709.71 244.91 708.72 245.21 706.6 244.33L608.16 225.25C571.73 218.19 535.1 213.28 498.21 208.74C459.82 204.01 421.4 200.61 382.74 198.71C333.57 196.29 284.71 197.15 235.87 201.25C235.19 201.31 235 201.25 234.8 201.49C234.66 201.66 234.69 202.1 234.8 202.43L233.74 201C227.14 177.63 216.37 157.66 200.65 139.2C193.82 131.18 179.48 142.27 186.39 151.63C197.71 165.32 208.48 182.2 213.07 199.56C213.2 200.07 213.22 200.6 213.2 201.15C213.18 201.7 213.1 202.28 213 202.84L159.62 209.68L158.34 208.39C145.44 158.95 74.4598 171.46 79.2398 222.33L78.4798 223.98C51.7098 229.66 25.8398 236.24 0.149761 243.7C-1.30024 223.81 6.69976 206.9 20.9998 192.85C38.4098 175.75 56.7398 159.89 76.6398 145.58C99.4398 129.18 123.28 114.77 148.56 102.6L184.21 87.2501L220.25 75.6601C260.1 64.3801 301.57 60.4901 342.69 62.1501L342.72 62.1301Z" fill="#466380"/>
<path d="M347.79 62.57C346.12 62.69 344.21 63.06 342.72 62.13C344.45 62.2 346.24 61.84 347.79 62.57Z" fill="#67839F"/>
<path d="M544.36 138.27C550.03 141.54 551.49 148.63 548.64 153.75C545.44 159.51 538.92 160.58 532.85 158.02L498.36 143.48C472.85 133.66 446.98 126.09 420.16 120.85C415.2 119.88 411.63 117.07 410.09 112.18C408.9 108.4 409.83 104.3 412.62 101.36C415.08 98.7699 418.96 97.2299 423 97.9699C453.7 103.6 498.1 117.4 526.57 130.24L544.36 138.26V138.27Z" fill="#B5CDDF"/>
<path d="M359.93 113.2C324.33 110.67 289.55 113.32 255.12 120.91C249.16 122.22 243.59 117.66 242.24 112.39C240.89 107.12 243.75 100.28 249.94 98.8001C286.52 90.0901 324.07 87.51 361.54 90.31C365.73 90.62 368.85 92.93 370.62 95.77C372.93 99.47 373.03 103.75 371.02 107.42C368.88 111.34 364.91 113.54 359.93 113.19V113.2Z" fill="#67849F"/>
<path d="M609.25 176.36C609.75 181.14 607.55 185.06 604.07 187.21C600.41 189.47 596.09 189.31 592.21 187.19L578.61 179.77C572.89 176.65 570.21 169.97 573.09 164.2C575.97 158.43 583.27 156.06 589.08 159.26L603.29 167.1C606.59 168.92 608.83 172.32 609.26 176.35L609.25 176.36Z" fill="#B1CADF"/>
<path d="M159.64 209.66C162.3 224.2 156.97 239.05 145.66 248.58C134.36 258.11 118.81 260.84 104.94 255.76C91.0598 250.67 80.9698 238.54 78.4998 223.97C74.7098 201.64 89.6598 180.44 111.97 176.51C134.27 172.58 155.57 187.39 159.64 209.67V209.66Z" fill="#6A86A1"/>
<path d="M119.08 239.42C131.44 239.42 141.46 229.4 141.46 217.04C141.46 204.68 131.44 194.66 119.08 194.66C106.72 194.66 96.6997 204.68 96.6997 217.04C96.6997 229.4 106.72 239.42 119.08 239.42Z" fill="#3A5471"/>
</g>
<defs>
<clipPath id="clip0_142_2086">
<rect width="820.69" height="470.12" fill="white"/>
</clipPath>
</defs>
</svg>
