<svg width="354" height="160" viewBox="0 0 354 160" fill="none" xmlns="http://www.w3.org/2000/svg">
<rect width="354" height="160" rx="6" fill="#F6F1ED"/>
<path d="M193.5 75.5C193.5 76.2956 193.184 77.0587 192.621 77.6213C192.059 78.1839 191.296 78.5 190.5 78.5H163.5C162.704 78.5 161.941 78.1839 161.379 77.6213C160.816 77.0587 160.5 76.2956 160.5 75.5V59C160.5 58.2044 160.816 57.4413 161.379 56.8787C161.941 56.3161 162.704 56 163.5 56H169.5L172.5 51.5H181.5L184.5 56H190.5C191.296 56 192.059 56.3161 192.621 56.8787C193.184 57.4413 193.5 58.2044 193.5 59V75.5Z" stroke="#BFB4AA" stroke-width="3" stroke-linecap="round" stroke-linejoin="round"/>
<path d="M177 72.5C180.314 72.5 183 69.8137 183 66.5C183 63.1863 180.314 60.5 177 60.5C173.686 60.5 171 63.1863 171 66.5C171 69.8137 173.686 72.5 177 72.5Z" stroke="#BFB4AA" stroke-width="3" stroke-linecap="round" stroke-linejoin="round"/>
<path d="M147.719 98.1094C147.719 100.562 149.344 103.078 151.312 104.047L150.562 105.031C149.031 104.227 147.75 102.586 147.141 100.656C146.516 102.711 145.203 104.461 143.641 105.297L142.859 104.312C144.891 103.312 146.5 100.641 146.516 98.1094V95.5781H147.719V98.1094ZM153.812 94.375V100.016H156.141V101.078H153.812V108.266H152.594V94.375H153.812ZM160.891 97.3594C160.891 99.2344 162.375 100.922 164.453 101.578L163.828 102.562C162.211 102.016 160.922 100.875 160.297 99.4062C159.688 100.992 158.383 102.242 156.734 102.844L156.094 101.859C158.172 101.125 159.656 99.3281 159.656 97.3594V96.5469H156.406V95.5469H164.094V96.5469H160.891V97.3594ZM167.359 94.3906V104.578H166.141V94.3906H167.359ZM167.797 106.938V107.969H158.391V103.609H159.609V106.938H167.797ZM175.562 95.0312C177.43 95.0156 178.844 96.1016 179.109 97.7031H182.016V94.375H183.25V101.828H182.016V98.7188H179.125C178.875 100.359 177.445 101.453 175.562 101.453C173.453 101.453 171.953 100.141 171.953 98.2344C171.953 96.3438 173.453 95.0156 175.562 95.0312ZM175.562 96.0781C174.141 96.0625 173.125 96.9531 173.125 98.2344C173.125 99.5 174.141 100.422 175.562 100.422C176.969 100.422 177.969 99.5 177.969 98.2344C177.969 96.9531 176.969 96.0625 175.562 96.0781ZM175.531 102.531V104.297H182.016V102.531H183.25V108.078H174.297V102.531H175.531ZM175.531 107.078H182.016V105.281H175.531V107.078ZM197.281 105.516V106.547H184.562V105.516H190.281V102.891H186.156V98.6094H194.469V96.4219H186.125V95.4062H195.672V99.6094H187.375V101.875H196V102.891H191.484V105.516H197.281ZM208.609 101.062V102.078H199.016V95.6719H208.469V96.6875H200.234V101.062H208.609ZM210.109 105.344V106.375H197.391V105.344H210.109Z" fill="#BFB4AA"/>
</svg>
