<svg width="24" height="24" viewBox="0 0 24 24" fill="none" xmlns="http://www.w3.org/2000/svg">
<g clip-path="url(#clip0_121_507)">
<path d="M14.713 17.2533C14.713 16.6705 14.4218 16.194 14.0613 15.786C12.8689 14.5999 10.9762 14.6787 9.87047 15.9197C9.57236 16.3139 9.34705 16.739 9.34359 17.2464L9.33319 21.5145H3.15268C2.62579 21.5076 2.1405 21.2231 1.84239 20.822C1.68988 20.6197 1.55469 20.3695 1.55469 20.1021V11.6859C2.94816 12.4058 4.52535 12.4024 5.8703 11.7031C6.60863 11.3328 7.22564 10.7912 7.69014 10.0884C7.85305 10.3318 8.00211 10.5649 8.21355 10.774C9.54463 12.111 11.7492 12.4915 13.5656 12.0287C14.7026 11.7373 15.7667 11.0997 16.3664 10.085C17.7218 12.1007 20.3215 12.8206 22.5088 11.6825L22.5019 20.0438C22.5019 20.7877 21.6699 21.5076 20.9628 21.5076L14.7234 21.5145L14.7164 17.2533H14.713Z" fill="#383131"/>
<path d="M15.2816 9.79936C14.7285 10.4006 13.8693 10.7958 13.0379 10.9453C12.3666 11.0682 11.6883 11.0682 11.017 10.9453C9.96993 10.756 8.83942 10.168 8.38374 9.24133C8.20982 8.88592 8.19243 8.54712 8.25504 8.16182L8.90899 4.28223L9.1664 2.70781C9.18727 2.57162 9.31945 2.46533 9.47946 2.46533H14.6067C14.8155 2.46533 14.8815 2.68456 14.9059 2.83403L15.1981 4.65757L15.4798 6.29178L15.8416 8.50394C15.8416 9.00218 15.6155 9.43066 15.2816 9.79603V9.79936Z" fill="#383131"/>
<path d="M23.4552 8.84407C23.3179 9.95428 22.3396 10.6856 21.2775 10.9382C19.666 11.3171 17.9238 10.5858 17.0728 9.1798C16.8885 8.87066 16.7914 8.5848 16.7344 8.22913L15.8499 2.81768C15.8365 2.72793 15.8365 2.64483 15.87 2.585C15.9035 2.52516 16.0007 2.46533 16.0845 2.46533L20.3461 2.47863C20.8118 2.47863 21.2708 2.84094 21.435 3.24647L22.0481 4.77883L23.4117 8.30226C23.4519 8.4884 23.4753 8.66125 23.4519 8.84407H23.4552Z" fill="#383131"/>
<path d="M5.87354 10.3424C4.94666 10.9706 3.8257 11.19 2.74825 10.9307C2.21286 10.8011 1.74775 10.5651 1.33952 10.1995C0.834255 9.74418 0.442757 8.91327 0.666948 8.32831L1.90502 5.0811L2.65456 3.20324C2.82856 2.76785 3.33382 2.46872 3.81232 2.46539H8.00838C8.14892 2.46207 8.23926 2.59502 8.21919 2.71799L7.84442 5.13096L7.32911 8.18539C7.299 8.36154 7.27223 8.5377 7.212 8.70056C6.951 9.3819 6.48923 9.92033 5.87354 10.3358V10.3424Z" fill="#383131"/>
</g>
<defs>
<clipPath id="clip0_121_507">
<rect width="24" height="24" fill="white"/>
</clipPath>
</defs>
</svg>
